<svg xmlns="http://www.w3.org/2000/svg" xmlns:xlink="http://www.w3.org/1999/xlink" width="2000" zoomAndPan="magnify" viewBox="0 0 1500 1499.999933" height="2000" preserveAspectRatio="xMidYMid meet" version="1.0"><defs><g/><clipPath id="52c5e6d78b"><path d="M 260.871094 208 L 371 208 L 371 239 L 260.871094 239 Z M 260.871094 208 " clip-rule="nonzero"/></clipPath><clipPath id="ddde611e9d"><path d="M 575 208 L 684.621094 208 L 684.621094 239 L 575 239 Z M 575 208 " clip-rule="nonzero"/></clipPath><clipPath id="6404450bf7"><path d="M 457 11.835938 L 488 11.835938 L 488 122 L 457 122 Z M 457 11.835938 " clip-rule="nonzero"/></clipPath><clipPath id="d0be440cdc"><path d="M 457 326 L 488 326 L 488 435.585938 L 457 435.585938 Z M 457 326 " clip-rule="nonzero"/></clipPath><clipPath id="624c49ef1a"><rect x="0" width="1419" y="0" height="558"/></clipPath></defs><g transform="matrix(1, 0, 0, 1, 24, 471)"><g clip-path="url(#624c49ef1a)"><g fill="#ffffff" fill-opacity="1"><g transform="translate(1.273209, 436.079966)"><g><path d="M 31.4375 -407.546875 C 31.4375 -411.984375 32.945312 -415.710938 35.96875 -418.734375 C 39 -421.753906 42.53125 -423.265625 46.5625 -423.265625 C 51 -423.265625 54.726562 -421.753906 57.75 -418.734375 C 60.769531 -415.710938 62.28125 -411.984375 62.28125 -407.546875 L 59.859375 -30.84375 L 206.1875 -30.84375 C 213.039062 -30.84375 217.578125 -28.21875 219.796875 -22.96875 C 222.015625 -17.726562 222.015625 -12.488281 219.796875 -7.25 C 217.578125 -2.007812 213.039062 0.609375 206.1875 0.609375 L 47.765625 0 L 47.171875 0 C 42.328125 0 38.09375 -1.207031 34.46875 -3.625 C 30.84375 -6.039062 29.03125 -9.867188 29.03125 -15.109375 Z M 31.4375 -407.546875 "/></g></g></g><g fill="#ffffff" fill-opacity="1"><g transform="translate(747.971759, 436.079966)"><g><path d="M 26 -423.265625 L 111.859375 -423.265625 C 140.890625 -423.265625 168.203125 -417.820312 193.796875 -406.9375 C 219.390625 -396.0625 241.960938 -380.847656 261.515625 -361.296875 C 281.066406 -341.742188 296.285156 -319.164062 307.171875 -293.5625 C 318.054688 -267.96875 323.5 -240.660156 323.5 -211.640625 C 323.5 -182.210938 318.054688 -154.695312 307.171875 -129.09375 C 296.285156 -103.5 281.066406 -81.023438 261.515625 -61.671875 C 241.960938 -42.328125 219.390625 -27.210938 193.796875 -16.328125 C 168.203125 -5.441406 140.890625 0 111.859375 0 L 26 0 C 21.96875 0 18.035156 0 14.203125 0 C 10.378906 0 6.453125 0 2.421875 0 L 1.8125 -30.84375 C 5.4375 -30.84375 9.363281 -30.84375 13.59375 -30.84375 C 17.832031 -30.84375 21.96875 -30.84375 26 -30.84375 L 111.859375 -30.84375 C 136.859375 -30.84375 160.238281 -35.476562 182 -44.75 C 203.769531 -54.019531 222.914062 -66.914062 239.4375 -83.4375 C 255.96875 -99.96875 268.867188 -119.21875 278.140625 -141.1875 C 287.421875 -163.15625 292.0625 -186.640625 292.0625 -211.640625 C 292.0625 -236.628906 287.421875 -260.003906 278.140625 -281.765625 C 268.867188 -303.535156 255.96875 -322.6875 239.4375 -339.21875 C 222.914062 -355.75 203.769531 -368.648438 182 -377.921875 C 160.238281 -387.191406 136.859375 -391.828125 111.859375 -391.828125 L 26 -391.828125 C 21.96875 -391.828125 17.9375 -391.925781 13.90625 -392.125 C 9.875 -392.332031 5.84375 -392.4375 1.8125 -392.4375 L 1.8125 -423.265625 C 5.84375 -423.265625 9.875 -423.265625 13.90625 -423.265625 C 17.9375 -423.265625 21.96875 -423.265625 26 -423.265625 Z M 26 -423.265625 "/></g></g></g><g fill="#ffffff" fill-opacity="1"><g transform="translate(1115.633383, 436.079966)"><g><path d="M 282.375 -392.4375 L 6.65625 -392.4375 L 6.65625 -423.265625 L 282.375 -423.265625 C 289.632812 -423.265625 294.375 -420.644531 296.59375 -415.40625 C 298.8125 -410.164062 298.8125 -405.023438 296.59375 -399.984375 C 294.375 -394.953125 289.632812 -392.4375 282.375 -392.4375 Z M 6.65625 0 L 6.65625 -30.84375 L 282.375 -30.84375 C 289.632812 -30.84375 294.375 -28.21875 296.59375 -22.96875 C 298.8125 -17.726562 298.8125 -12.585938 296.59375 -7.546875 C 294.375 -2.515625 289.632812 0 282.375 0 Z M 6.65625 -196.515625 L 6.65625 -227.96875 L 212.234375 -227.359375 C 219.492188 -227.765625 224.234375 -225.34375 226.453125 -220.09375 C 228.671875 -214.851562 228.671875 -209.613281 226.453125 -204.375 C 224.234375 -199.132812 219.492188 -196.515625 212.234375 -196.515625 Z M 6.65625 -196.515625 "/></g></g></g><path fill="#ffffff" d="M 374.402344 409.367188 C 371.832031 409.367188 369.230469 408.714844 366.84375 407.335938 C 359.601562 403.15625 357.117188 393.894531 361.300781 386.648438 L 400.964844 317.949219 C 405.144531 310.707031 414.40625 308.222656 421.652344 312.40625 C 428.894531 316.585938 431.378906 325.847656 427.195312 333.09375 L 387.53125 401.792969 C 384.726562 406.652344 379.636719 409.367188 374.402344 409.367188 Z M 374.402344 409.367188 " fill-opacity="1" fill-rule="nonzero"/><path fill="#ffffff" d="M 531.542969 137.195312 C 528.972656 137.195312 526.371094 136.539062 523.984375 135.164062 C 516.742188 130.980469 514.257812 121.71875 518.441406 114.476562 L 558.105469 45.773438 C 562.285156 38.53125 571.546875 36.050781 578.792969 40.230469 C 586.035156 44.414062 588.515625 53.675781 584.335938 60.917969 L 544.671875 129.621094 C 541.867188 134.476562 536.773438 137.195312 531.542969 137.195312 Z M 531.542969 137.195312 " fill-opacity="1" fill-rule="nonzero"/><path fill="#ffffff" d="M 302.394531 337.332031 C 297.160156 337.332031 292.070312 334.617188 289.265625 329.757812 C 285.082031 322.515625 287.566406 313.253906 294.808594 309.070312 L 363.507812 269.40625 C 370.757812 265.226562 380.015625 267.707031 384.195312 274.949219 C 388.378906 282.191406 385.898438 291.453125 378.652344 295.636719 L 309.953125 335.300781 C 307.570312 336.679688 304.964844 337.332031 302.394531 337.332031 Z M 302.394531 337.332031 " fill-opacity="1" fill-rule="nonzero"/><path fill="#ffffff" d="M 574.570312 180.195312 C 569.332031 180.195312 564.246094 177.476562 561.4375 172.617188 C 557.257812 165.375 559.738281 156.113281 566.980469 151.929688 L 635.683594 112.265625 C 642.933594 108.085938 652.191406 110.570312 656.371094 117.808594 C 660.554688 125.054688 658.070312 134.316406 650.828125 138.496094 L 582.125 178.160156 C 579.738281 179.539062 577.136719 180.195312 574.570312 180.195312 Z M 574.570312 180.195312 " fill-opacity="1" fill-rule="nonzero"/><g clip-path="url(#52c5e6d78b)"><path fill="#ffffff" d="M 355.34375 238.929688 L 276.011719 238.929688 C 267.648438 238.929688 260.871094 232.148438 260.871094 223.785156 C 260.871094 215.421875 267.648438 208.640625 276.011719 208.640625 L 355.34375 208.640625 C 363.707031 208.640625 370.488281 215.421875 370.488281 223.785156 C 370.488281 232.148438 363.707031 238.929688 355.34375 238.929688 Z M 355.34375 238.929688 " fill-opacity="1" fill-rule="nonzero"/></g><g clip-path="url(#ddde611e9d)"><path fill="#ffffff" d="M 669.621094 238.929688 L 590.292969 238.929688 C 581.929688 238.929688 575.148438 232.148438 575.148438 223.785156 C 575.148438 215.421875 581.929688 208.640625 590.292969 208.640625 L 669.621094 208.640625 C 677.988281 208.640625 684.765625 215.421875 684.765625 223.785156 C 684.765625 232.148438 677.988281 238.929688 669.621094 238.929688 Z M 669.621094 238.929688 " fill-opacity="1" fill-rule="nonzero"/></g><path fill="#ffffff" d="M 371.066406 180.195312 C 368.496094 180.195312 365.894531 179.539062 363.507812 178.160156 L 294.808594 138.496094 C 287.566406 134.316406 285.082031 125.054688 289.265625 117.8125 C 293.445312 110.570312 302.707031 108.085938 309.953125 112.269531 L 378.652344 151.933594 C 385.898438 156.113281 388.378906 165.375 384.195312 172.617188 C 381.390625 177.476562 376.300781 180.195312 371.066406 180.195312 Z M 371.066406 180.195312 " fill-opacity="1" fill-rule="nonzero"/><path fill="#ffffff" d="M 643.242188 337.332031 C 640.671875 337.332031 638.070312 336.679688 635.683594 335.300781 L 566.980469 295.636719 C 559.738281 291.453125 557.257812 282.191406 561.4375 274.949219 C 565.621094 267.707031 574.878906 265.222656 582.125 269.40625 L 650.828125 309.070312 C 658.070312 313.253906 660.554688 322.515625 656.371094 329.757812 C 653.566406 334.617188 648.472656 337.332031 643.242188 337.332031 Z M 643.242188 337.332031 " fill-opacity="1" fill-rule="nonzero"/><path fill="#ffffff" d="M 414.09375 137.195312 C 408.859375 137.195312 403.769531 134.476562 400.964844 129.621094 L 361.300781 60.917969 C 357.117188 53.675781 359.601562 44.414062 366.84375 40.230469 C 374.089844 36.054688 383.351562 38.535156 387.53125 45.773438 L 427.195312 114.476562 C 431.375 121.71875 428.894531 130.980469 421.652344 135.164062 C 419.269531 136.539062 416.664062 137.195312 414.09375 137.195312 Z M 414.09375 137.195312 " fill-opacity="1" fill-rule="nonzero"/><path fill="#ffffff" d="M 571.234375 409.367188 C 566 409.367188 560.910156 406.652344 558.105469 401.792969 L 518.441406 333.09375 C 514.257812 325.847656 516.742188 316.585938 523.984375 312.40625 C 531.234375 308.226562 540.492188 310.707031 544.671875 317.949219 L 584.335938 386.652344 C 588.515625 393.894531 586.035156 403.15625 578.792969 407.335938 C 576.40625 408.714844 573.804688 409.367188 571.234375 409.367188 Z M 571.234375 409.367188 " fill-opacity="1" fill-rule="nonzero"/><g clip-path="url(#6404450bf7)"><path fill="#ffffff" d="M 472.816406 121.453125 C 464.453125 121.453125 457.671875 114.671875 457.671875 106.308594 L 457.671875 26.980469 C 457.671875 18.617188 464.453125 11.835938 472.816406 11.835938 C 481.179688 11.835938 487.960938 18.617188 487.960938 26.980469 L 487.960938 106.308594 C 487.960938 114.671875 481.179688 121.453125 472.816406 121.453125 Z M 472.816406 121.453125 " fill-opacity="1" fill-rule="nonzero"/></g><g clip-path="url(#d0be440cdc)"><path fill="#ffffff" d="M 472.816406 435.734375 C 464.453125 435.734375 457.671875 428.953125 457.671875 420.589844 L 457.671875 341.261719 C 457.671875 332.898438 464.453125 326.117188 472.816406 326.117188 C 481.179688 326.117188 487.960938 332.898438 487.960938 341.261719 L 487.960938 420.589844 C 487.960938 428.953125 481.179688 435.734375 472.816406 435.734375 Z M 472.816406 435.734375 " fill-opacity="1" fill-rule="nonzero"/></g></g></g></svg>