<svg xmlns="http://www.w3.org/2000/svg" xmlns:xlink="http://www.w3.org/1999/xlink" width="2000" zoomAndPan="magnify" viewBox="0 0 1500 1499.999933" height="2000" preserveAspectRatio="xMidYMid meet" version="1.0"><defs><g/><clipPath id="3c62669b75"><path d="M 260.023438 208 L 370 208 L 370 239 L 260.023438 239 Z M 260.023438 208 " clip-rule="nonzero"/></clipPath><clipPath id="e70d276c87"><path d="M 574 208 L 683.773438 208 L 683.773438 239 L 574 239 Z M 574 208 " clip-rule="nonzero"/></clipPath><clipPath id="305688499d"><path d="M 456 11.835938 L 488 11.835938 L 488 122 L 456 122 Z M 456 11.835938 " clip-rule="nonzero"/></clipPath><clipPath id="5a35db1c5d"><path d="M 456 326 L 488 326 L 488 435.585938 L 456 435.585938 Z M 456 326 " clip-rule="nonzero"/></clipPath><clipPath id="76e2f5ff87"><rect x="0" width="1418" y="0" height="558"/></clipPath></defs><g transform="matrix(1, 0, 0, 1, 24, 471)"><g clip-path="url(#76e2f5ff87)"><g fill="#0b1f3b" fill-opacity="1"><g transform="translate(0.427811, 436.079956)"><g><path d="M 31.4375 -407.546875 C 31.4375 -411.984375 32.945312 -415.710938 35.96875 -418.734375 C 39 -421.753906 42.53125 -423.265625 46.5625 -423.265625 C 51 -423.265625 54.726562 -421.753906 57.75 -418.734375 C 60.769531 -415.710938 62.28125 -411.984375 62.28125 -407.546875 L 59.859375 -30.84375 L 206.1875 -30.84375 C 213.039062 -30.84375 217.578125 -28.21875 219.796875 -22.96875 C 222.015625 -17.726562 222.015625 -12.488281 219.796875 -7.25 C 217.578125 -2.007812 213.039062 0.609375 206.1875 0.609375 L 47.765625 0 L 47.171875 0 C 42.328125 0 38.09375 -1.207031 34.46875 -3.625 C 30.84375 -6.039062 29.03125 -9.867188 29.03125 -15.109375 Z M 31.4375 -407.546875 "/></g></g></g><g fill="#0b1f3b" fill-opacity="1"><g transform="translate(747.126708, 436.079956)"><g><path d="M 26 -423.265625 L 111.859375 -423.265625 C 140.890625 -423.265625 168.203125 -417.820312 193.796875 -406.9375 C 219.390625 -396.0625 241.960938 -380.847656 261.515625 -361.296875 C 281.066406 -341.742188 296.285156 -319.164062 307.171875 -293.5625 C 318.054688 -267.96875 323.5 -240.660156 323.5 -211.640625 C 323.5 -182.210938 318.054688 -154.695312 307.171875 -129.09375 C 296.285156 -103.5 281.066406 -81.023438 261.515625 -61.671875 C 241.960938 -42.328125 219.390625 -27.210938 193.796875 -16.328125 C 168.203125 -5.441406 140.890625 0 111.859375 0 L 26 0 C 21.96875 0 18.035156 0 14.203125 0 C 10.378906 0 6.453125 0 2.421875 0 L 1.8125 -30.84375 C 5.4375 -30.84375 9.363281 -30.84375 13.59375 -30.84375 C 17.832031 -30.84375 21.96875 -30.84375 26 -30.84375 L 111.859375 -30.84375 C 136.859375 -30.84375 160.238281 -35.476562 182 -44.75 C 203.769531 -54.019531 222.914062 -66.914062 239.4375 -83.4375 C 255.96875 -99.96875 268.867188 -119.21875 278.140625 -141.1875 C 287.421875 -163.15625 292.0625 -186.640625 292.0625 -211.640625 C 292.0625 -236.628906 287.421875 -260.003906 278.140625 -281.765625 C 268.867188 -303.535156 255.96875 -322.6875 239.4375 -339.21875 C 222.914062 -355.75 203.769531 -368.648438 182 -377.921875 C 160.238281 -387.191406 136.859375 -391.828125 111.859375 -391.828125 L 26 -391.828125 C 21.96875 -391.828125 17.9375 -391.925781 13.90625 -392.125 C 9.875 -392.332031 5.84375 -392.4375 1.8125 -392.4375 L 1.8125 -423.265625 C 5.84375 -423.265625 9.875 -423.265625 13.90625 -423.265625 C 17.9375 -423.265625 21.96875 -423.265625 26 -423.265625 Z M 26 -423.265625 "/></g></g></g><g fill="#0b1f3b" fill-opacity="1"><g transform="translate(1114.788559, 436.079956)"><g><path d="M 282.375 -392.4375 L 6.65625 -392.4375 L 6.65625 -423.265625 L 282.375 -423.265625 C 289.632812 -423.265625 294.375 -420.644531 296.59375 -415.40625 C 298.8125 -410.164062 298.8125 -405.023438 296.59375 -399.984375 C 294.375 -394.953125 289.632812 -392.4375 282.375 -392.4375 Z M 6.65625 0 L 6.65625 -30.84375 L 282.375 -30.84375 C 289.632812 -30.84375 294.375 -28.21875 296.59375 -22.96875 C 298.8125 -17.726562 298.8125 -12.585938 296.59375 -7.546875 C 294.375 -2.515625 289.632812 0 282.375 0 Z M 6.65625 -196.515625 L 6.65625 -227.96875 L 212.234375 -227.359375 C 219.492188 -227.765625 224.234375 -225.34375 226.453125 -220.09375 C 228.671875 -214.851562 228.671875 -209.613281 226.453125 -204.375 C 224.234375 -199.132812 219.492188 -196.515625 212.234375 -196.515625 Z M 6.65625 -196.515625 "/></g></g></g><path fill="#ff914d" d="M 373.554688 409.367188 C 370.988281 409.367188 368.382812 408.714844 366 407.335938 C 358.753906 403.15625 356.273438 393.894531 360.457031 386.648438 L 400.121094 317.949219 C 404.300781 310.707031 413.558594 308.222656 420.808594 312.40625 C 428.050781 316.585938 430.53125 325.847656 426.351562 333.09375 L 386.6875 401.792969 C 383.882812 406.652344 378.789062 409.367188 373.554688 409.367188 Z M 373.554688 409.367188 " fill-opacity="1" fill-rule="nonzero"/><path fill="#ff6a00" d="M 530.695312 137.195312 C 528.128906 137.195312 525.523438 136.539062 523.140625 135.164062 C 515.894531 130.980469 513.414062 121.71875 517.597656 114.476562 L 557.261719 45.773438 C 561.441406 38.53125 570.699219 36.050781 577.945312 40.230469 C 585.191406 44.414062 587.671875 53.675781 583.488281 60.917969 L 543.824219 129.621094 C 541.023438 134.476562 535.929688 137.195312 530.695312 137.195312 Z M 530.695312 137.195312 " fill-opacity="1" fill-rule="nonzero"/><path fill="#ff914d" d="M 301.550781 337.332031 C 296.316406 337.332031 291.226562 334.617188 288.421875 329.757812 C 284.238281 322.515625 286.71875 313.253906 293.964844 309.070312 L 362.664062 269.40625 C 369.910156 265.226562 379.171875 267.707031 383.351562 274.949219 C 387.535156 282.191406 385.050781 291.453125 377.808594 295.636719 L 309.109375 335.300781 C 306.722656 336.679688 304.121094 337.332031 301.550781 337.332031 Z M 301.550781 337.332031 " fill-opacity="1" fill-rule="nonzero"/><path fill="#ffdbc5" d="M 573.722656 180.195312 C 568.488281 180.195312 563.398438 177.476562 560.59375 172.617188 C 556.410156 165.375 558.894531 156.113281 566.136719 151.929688 L 634.839844 112.265625 C 642.089844 108.085938 651.347656 110.570312 655.527344 117.808594 C 659.707031 125.054688 657.226562 134.316406 649.984375 138.496094 L 581.28125 178.160156 C 578.894531 179.539062 576.292969 180.195312 573.722656 180.195312 Z M 573.722656 180.195312 " fill-opacity="1" fill-rule="nonzero"/><g clip-path="url(#3c62669b75)"><path fill="#ff914d" d="M 354.496094 238.929688 L 275.167969 238.929688 C 266.804688 238.929688 260.023438 232.148438 260.023438 223.785156 C 260.023438 215.421875 266.804688 208.640625 275.167969 208.640625 L 354.496094 208.640625 C 362.859375 208.640625 369.640625 215.421875 369.640625 223.785156 C 369.640625 232.148438 362.859375 238.929688 354.496094 238.929688 Z M 354.496094 238.929688 " fill-opacity="1" fill-rule="nonzero"/></g><g clip-path="url(#e70d276c87)"><path fill="#ffdbc5" d="M 668.777344 238.929688 L 589.449219 238.929688 C 581.085938 238.929688 574.304688 232.148438 574.304688 223.785156 C 574.304688 215.421875 581.085938 208.640625 589.449219 208.640625 L 668.777344 208.640625 C 677.140625 208.640625 683.921875 215.421875 683.921875 223.785156 C 683.921875 232.148438 677.140625 238.929688 668.777344 238.929688 Z M 668.777344 238.929688 " fill-opacity="1" fill-rule="nonzero"/></g><path fill="#ff6a00" d="M 370.222656 180.195312 C 367.652344 180.195312 365.050781 179.539062 362.664062 178.160156 L 293.964844 138.496094 C 286.71875 134.316406 284.238281 125.054688 288.421875 117.8125 C 292.601562 110.570312 301.859375 108.085938 309.105469 112.269531 L 377.808594 151.933594 C 385.050781 156.113281 387.53125 165.375 383.351562 172.617188 C 380.546875 177.476562 375.457031 180.195312 370.222656 180.195312 Z M 370.222656 180.195312 " fill-opacity="1" fill-rule="nonzero"/><path fill="#f8b287" d="M 642.394531 337.332031 C 639.828125 337.332031 637.222656 336.679688 634.839844 335.300781 L 566.136719 295.636719 C 558.894531 291.453125 556.410156 282.191406 560.59375 274.949219 C 564.773438 267.707031 574.035156 265.222656 581.28125 269.40625 L 649.984375 309.070312 C 657.226562 313.253906 659.707031 322.515625 655.527344 329.757812 C 652.71875 334.617188 647.628906 337.332031 642.394531 337.332031 Z M 642.394531 337.332031 " fill-opacity="1" fill-rule="nonzero"/><path fill="#ff6a00" d="M 413.25 137.195312 C 408.015625 137.195312 402.925781 134.476562 400.121094 129.621094 L 360.457031 60.917969 C 356.273438 53.675781 358.753906 44.414062 366 40.230469 C 373.242188 36.050781 382.503906 38.535156 386.6875 45.773438 L 426.347656 114.476562 C 430.53125 121.71875 428.050781 130.980469 420.804688 135.164062 C 418.421875 136.539062 415.820312 137.195312 413.25 137.195312 Z M 413.25 137.195312 " fill-opacity="1" fill-rule="nonzero"/><path fill="#f8b287" d="M 570.390625 409.367188 C 565.15625 409.367188 560.066406 406.652344 557.261719 401.792969 L 517.597656 333.09375 C 513.414062 325.847656 515.894531 316.585938 523.140625 312.40625 C 530.386719 308.226562 539.644531 310.707031 543.828125 317.949219 L 583.488281 386.652344 C 587.671875 393.894531 585.191406 403.15625 577.945312 407.335938 C 575.5625 408.714844 572.957031 409.367188 570.390625 409.367188 Z M 570.390625 409.367188 " fill-opacity="1" fill-rule="nonzero"/><g clip-path="url(#305688499d)"><path fill="#ff6a00" d="M 471.972656 121.453125 C 463.609375 121.453125 456.828125 114.671875 456.828125 106.308594 L 456.828125 26.980469 C 456.828125 18.617188 463.609375 11.835938 471.972656 11.835938 C 480.335938 11.835938 487.117188 18.617188 487.117188 26.980469 L 487.117188 106.308594 C 487.117188 114.671875 480.335938 121.453125 471.972656 121.453125 Z M 471.972656 121.453125 " fill-opacity="1" fill-rule="nonzero"/></g><g clip-path="url(#5a35db1c5d)"><path fill="#f8b287" d="M 471.972656 435.734375 C 463.609375 435.734375 456.828125 428.953125 456.828125 420.589844 L 456.828125 341.261719 C 456.828125 332.898438 463.609375 326.117188 471.972656 326.117188 C 480.335938 326.117188 487.117188 332.898438 487.117188 341.261719 L 487.117188 420.589844 C 487.117188 428.953125 480.335938 435.734375 471.972656 435.734375 Z M 471.972656 435.734375 " fill-opacity="1" fill-rule="nonzero"/></g></g></g></svg>