<svg xmlns="http://www.w3.org/2000/svg" xmlns:xlink="http://www.w3.org/1999/xlink" width="2000" zoomAndPan="magnify" viewBox="0 0 1500 1499.999933" height="2000" preserveAspectRatio="xMidYMid meet" version="1.0"><defs><g/><clipPath id="e4ca299c8a"><path d="M 260.027344 208 L 370 208 L 370 239 L 260.027344 239 Z M 260.027344 208 " clip-rule="nonzero"/></clipPath><clipPath id="c9fa185f9d"><path d="M 574 208 L 683.800781 208 L 683.800781 239 L 574 239 Z M 574 208 " clip-rule="nonzero"/></clipPath><clipPath id="d9207a5172"><path d="M 456 11.820312 L 488 11.820312 L 488 122 L 456 122 Z M 456 11.820312 " clip-rule="nonzero"/></clipPath><clipPath id="1e2d8ba102"><path d="M 456 326 L 488 326 L 488 435.59375 L 456 435.59375 Z M 456 326 " clip-rule="nonzero"/></clipPath><clipPath id="92ac07c314"><rect x="0" width="1418" y="0" height="558"/></clipPath></defs><rect x="-150" width="1800" fill="#ffffff" y="-149.999993" height="1799.99992" fill-opacity="1"/><rect x="-150" width="1800" fill="#ffffff" y="-149.999993" height="1799.99992" fill-opacity="1"/><g transform="matrix(1, 0, 0, 1, 24, 471)"><g clip-path="url(#92ac07c314)"><g fill="#000000" fill-opacity="1"><g transform="translate(0.418022, 436.08809)"><g><path d="M 31.453125 -407.578125 C 31.453125 -412.015625 32.960938 -415.742188 35.984375 -418.765625 C 39.003906 -421.785156 42.53125 -423.296875 46.5625 -423.296875 C 51 -423.296875 54.726562 -421.785156 57.75 -418.765625 C 60.769531 -415.742188 62.28125 -412.015625 62.28125 -407.578125 L 59.859375 -30.84375 L 206.203125 -30.84375 C 213.054688 -30.84375 217.59375 -28.222656 219.8125 -22.984375 C 222.03125 -17.742188 222.03125 -12.5 219.8125 -7.25 C 217.59375 -2.007812 213.054688 0.609375 206.203125 0.609375 L 47.765625 0 L 47.171875 0 C 42.328125 0 38.09375 -1.207031 34.46875 -3.625 C 30.84375 -6.039062 29.03125 -9.875 29.03125 -15.125 Z M 31.453125 -407.578125 "/></g></g></g><g fill="#000000" fill-opacity="1"><g transform="translate(747.15579, 436.08809)"><g><path d="M 26 -423.296875 L 111.875 -423.296875 C 140.894531 -423.296875 168.207031 -417.851562 193.8125 -406.96875 C 219.414062 -396.082031 241.992188 -380.863281 261.546875 -361.3125 C 281.097656 -341.757812 296.316406 -319.179688 307.203125 -293.578125 C 318.085938 -267.984375 323.53125 -240.675781 323.53125 -211.65625 C 323.53125 -182.21875 318.085938 -154.695312 307.203125 -129.09375 C 296.316406 -103.5 281.097656 -81.023438 261.546875 -61.671875 C 241.992188 -42.328125 219.414062 -27.210938 193.8125 -16.328125 C 168.207031 -5.441406 140.894531 0 111.875 0 L 26 0 C 21.96875 0 18.035156 0 14.203125 0 C 10.378906 0 6.453125 0 2.421875 0 L 1.8125 -30.84375 C 5.4375 -30.84375 9.363281 -30.84375 13.59375 -30.84375 C 17.832031 -30.84375 21.96875 -30.84375 26 -30.84375 L 111.875 -30.84375 C 136.863281 -30.84375 160.242188 -35.476562 182.015625 -44.75 C 203.785156 -54.019531 222.9375 -66.921875 239.46875 -83.453125 C 256 -99.984375 268.898438 -119.234375 278.171875 -141.203125 C 287.441406 -163.171875 292.078125 -186.65625 292.078125 -211.65625 C 292.078125 -236.644531 287.441406 -260.023438 278.171875 -281.796875 C 268.898438 -303.566406 256 -322.71875 239.46875 -339.25 C 222.9375 -355.78125 203.785156 -368.679688 182.015625 -377.953125 C 160.242188 -387.222656 136.863281 -391.859375 111.875 -391.859375 L 26 -391.859375 C 21.96875 -391.859375 17.9375 -391.957031 13.90625 -392.15625 C 9.875 -392.363281 5.84375 -392.46875 1.8125 -392.46875 L 1.8125 -423.296875 C 5.84375 -423.296875 9.875 -423.296875 13.90625 -423.296875 C 17.9375 -423.296875 21.96875 -423.296875 26 -423.296875 Z M 26 -423.296875 "/></g></g></g><g fill="#000000" fill-opacity="1"><g transform="translate(1114.836727, 436.08809)"><g><path d="M 282.40625 -392.46875 L 6.65625 -392.46875 L 6.65625 -423.296875 L 282.40625 -423.296875 C 289.65625 -423.296875 294.390625 -420.675781 296.609375 -415.4375 C 298.828125 -410.195312 298.828125 -405.054688 296.609375 -400.015625 C 294.390625 -394.984375 289.65625 -392.46875 282.40625 -392.46875 Z M 6.65625 0 L 6.65625 -30.84375 L 282.40625 -30.84375 C 289.65625 -30.84375 294.390625 -28.222656 296.609375 -22.984375 C 298.828125 -17.742188 298.828125 -12.601562 296.609375 -7.5625 C 294.390625 -2.519531 289.65625 0 282.40625 0 Z M 6.65625 -196.53125 L 6.65625 -227.984375 L 212.25 -227.375 C 219.507812 -227.78125 224.25 -225.359375 226.46875 -220.109375 C 228.6875 -214.867188 228.6875 -209.628906 226.46875 -204.390625 C 224.25 -199.148438 219.507812 -196.53125 212.25 -196.53125 Z M 6.65625 -196.53125 "/></g></g></g><path fill="#000000" d="M 373.566406 409.375 C 370.996094 409.375 368.394531 408.71875 366.007812 407.34375 C 358.765625 403.164062 356.28125 393.898438 360.464844 386.65625 L 400.132812 317.949219 C 404.3125 310.707031 413.570312 308.222656 420.820312 312.40625 C 428.0625 316.589844 430.542969 325.851562 426.363281 333.09375 L 386.695312 401.800781 C 383.890625 406.660156 378.800781 409.375 373.566406 409.375 Z M 373.566406 409.375 " fill-opacity="1" fill-rule="nonzero"/><path fill="#000000" d="M 530.714844 137.1875 C 528.144531 137.1875 525.542969 136.53125 523.15625 135.15625 C 515.914062 130.972656 513.429688 121.710938 517.613281 114.46875 L 557.28125 45.761719 C 561.460938 38.519531 570.71875 36.035156 577.96875 40.21875 C 585.210938 44.402344 587.691406 53.664062 583.511719 60.90625 L 543.84375 129.613281 C 541.039062 134.46875 535.949219 137.1875 530.714844 137.1875 Z M 530.714844 137.1875 " fill-opacity="1" fill-rule="nonzero"/><path fill="#000000" d="M 301.554688 337.335938 C 296.320312 337.335938 291.230469 334.621094 288.425781 329.761719 C 284.242188 322.515625 286.726562 313.257812 293.96875 309.074219 L 362.671875 269.40625 C 369.921875 265.226562 379.183594 267.707031 383.363281 274.949219 C 387.542969 282.191406 385.0625 291.453125 377.816406 295.636719 L 309.113281 335.304688 C 306.730469 336.679688 304.125 337.335938 301.554688 337.335938 Z M 301.554688 337.335938 " fill-opacity="1" fill-rule="nonzero"/><path fill="#000000" d="M 573.742188 180.1875 C 568.507812 180.1875 563.417969 177.472656 560.613281 172.613281 C 556.429688 165.367188 558.910156 156.105469 566.15625 151.925781 L 634.863281 112.257812 C 642.113281 108.078125 651.371094 110.5625 655.550781 117.800781 C 659.730469 125.046875 657.25 134.308594 650.007812 138.488281 L 581.300781 178.15625 C 578.914062 179.53125 576.3125 180.1875 573.742188 180.1875 Z M 573.742188 180.1875 " fill-opacity="1" fill-rule="nonzero"/><g clip-path="url(#e4ca299c8a)"><path fill="#000000" d="M 354.507812 238.925781 L 275.171875 238.925781 C 266.808594 238.925781 260.027344 232.144531 260.027344 223.78125 C 260.027344 215.417969 266.808594 208.636719 275.171875 208.636719 L 354.507812 208.636719 C 362.871094 208.636719 369.652344 215.417969 369.652344 223.78125 C 369.652344 232.144531 362.871094 238.925781 354.507812 238.925781 Z M 354.507812 238.925781 " fill-opacity="1" fill-rule="nonzero"/></g><g clip-path="url(#c9fa185f9d)"><path fill="#000000" d="M 668.804688 238.925781 L 589.46875 238.925781 C 581.105469 238.925781 574.324219 232.144531 574.324219 223.78125 C 574.324219 215.417969 581.105469 208.636719 589.46875 208.636719 L 668.804688 208.636719 C 677.167969 208.636719 683.949219 215.417969 683.949219 223.78125 C 683.949219 232.144531 677.167969 238.925781 668.804688 238.925781 Z M 668.804688 238.925781 " fill-opacity="1" fill-rule="nonzero"/></g><path fill="#000000" d="M 370.230469 180.1875 C 367.660156 180.1875 365.058594 179.53125 362.671875 178.15625 L 293.96875 138.488281 C 286.726562 134.308594 284.242188 125.046875 288.425781 117.800781 C 292.605469 110.558594 301.867188 108.074219 309.113281 112.257812 L 377.816406 151.925781 C 385.0625 156.109375 387.542969 165.371094 383.359375 172.613281 C 380.558594 177.472656 375.464844 180.1875 370.230469 180.1875 Z M 370.230469 180.1875 " fill-opacity="1" fill-rule="nonzero"/><path fill="#000000" d="M 642.417969 337.335938 C 639.851562 337.335938 637.246094 336.679688 634.863281 335.304688 L 566.15625 295.636719 C 558.914062 291.453125 556.429688 282.191406 560.613281 274.949219 C 564.792969 267.703125 574.054688 265.222656 581.300781 269.40625 L 650.007812 309.074219 C 657.25 313.253906 659.730469 322.515625 655.550781 329.761719 C 652.746094 334.621094 647.652344 337.335938 642.417969 337.335938 Z M 642.417969 337.335938 " fill-opacity="1" fill-rule="nonzero"/><path fill="#000000" d="M 413.261719 137.1875 C 408.027344 137.1875 402.9375 134.46875 400.132812 129.613281 L 360.464844 60.90625 C 356.28125 53.664062 358.765625 44.402344 366.007812 40.21875 C 373.253906 36.039062 382.515625 38.523438 386.695312 45.761719 L 426.363281 114.46875 C 430.542969 121.710938 428.0625 130.972656 420.820312 135.15625 C 418.433594 136.53125 415.832031 137.1875 413.261719 137.1875 Z M 413.261719 137.1875 " fill-opacity="1" fill-rule="nonzero"/><path fill="#000000" d="M 570.410156 409.375 C 565.175781 409.375 560.085938 406.660156 557.28125 401.800781 L 517.613281 333.09375 C 513.429688 325.851562 515.914062 316.589844 523.15625 312.40625 C 530.40625 308.226562 539.664062 310.707031 543.84375 317.949219 L 583.511719 386.65625 C 587.691406 393.898438 585.210938 403.164062 577.96875 407.34375 C 575.582031 408.71875 572.980469 409.375 570.410156 409.375 Z M 570.410156 409.375 " fill-opacity="1" fill-rule="nonzero"/><g clip-path="url(#d9207a5172)"><path fill="#000000" d="M 471.988281 121.445312 C 463.625 121.445312 456.84375 114.664062 456.84375 106.300781 L 456.84375 26.964844 C 456.84375 18.601562 463.625 11.820312 471.988281 11.820312 C 480.351562 11.820312 487.132812 18.601562 487.132812 26.964844 L 487.132812 106.300781 C 487.132812 114.664062 480.351562 121.445312 471.988281 121.445312 Z M 471.988281 121.445312 " fill-opacity="1" fill-rule="nonzero"/></g><g clip-path="url(#1e2d8ba102)"><path fill="#000000" d="M 471.988281 435.742188 C 463.625 435.742188 456.84375 428.960938 456.84375 420.597656 L 456.84375 341.261719 C 456.84375 332.898438 463.625 326.117188 471.988281 326.117188 C 480.351562 326.117188 487.132812 332.898438 487.132812 341.261719 L 487.132812 420.597656 C 487.132812 428.960938 480.351562 435.742188 471.988281 435.742188 Z M 471.988281 435.742188 " fill-opacity="1" fill-rule="nonzero"/></g></g></g></svg>