<svg xmlns="http://www.w3.org/2000/svg" xmlns:xlink="http://www.w3.org/1999/xlink" width="2000" zoomAndPan="magnify" viewBox="0 0 1500 1499.999933" height="2000" preserveAspectRatio="xMidYMid meet" version="1.0"><defs><g/><clipPath id="3e3052d7b3"><path d="M 260.632812 208 L 371 208 L 371 239 L 260.632812 239 Z M 260.632812 208 " clip-rule="nonzero"/></clipPath><clipPath id="d16f562285"><path d="M 574 208 L 684.382812 208 L 684.382812 239 L 574 239 Z M 574 208 " clip-rule="nonzero"/></clipPath><clipPath id="c12202f1c4"><path d="M 457 11.835938 L 488 11.835938 L 488 122 L 457 122 Z M 457 11.835938 " clip-rule="nonzero"/></clipPath><clipPath id="f04906ac6a"><path d="M 457 326 L 488 326 L 488 435.585938 L 457 435.585938 Z M 457 326 " clip-rule="nonzero"/></clipPath><clipPath id="4321898df2"><rect x="0" width="1419" y="0" height="558"/></clipPath></defs><rect x="-150" width="1800" fill="#ffffff" y="-149.999993" height="1799.99992" fill-opacity="1"/><rect x="-150" width="1800" fill="#0b1f3b" y="-149.999993" height="1799.99992" fill-opacity="1"/><g transform="matrix(1, 0, 0, 1, 24, 471)"><g clip-path="url(#4321898df2)"><g fill="#ffffff" fill-opacity="1"><g transform="translate(1.035487, 436.079721)"><g><path d="M 31.4375 -407.546875 C 31.4375 -411.984375 32.945312 -415.710938 35.96875 -418.734375 C 39 -421.753906 42.53125 -423.265625 46.5625 -423.265625 C 51 -423.265625 54.726562 -421.753906 57.75 -418.734375 C 60.769531 -415.710938 62.28125 -411.984375 62.28125 -407.546875 L 59.859375 -30.84375 L 206.1875 -30.84375 C 213.039062 -30.84375 217.578125 -28.21875 219.796875 -22.96875 C 222.015625 -17.726562 222.015625 -12.488281 219.796875 -7.25 C 217.578125 -2.007812 213.039062 0.609375 206.1875 0.609375 L 47.765625 0 L 47.171875 0 C 42.328125 0 38.09375 -1.207031 34.46875 -3.625 C 30.84375 -6.039062 29.03125 -9.867188 29.03125 -15.109375 Z M 31.4375 -407.546875 "/></g></g></g><g fill="#ffffff" fill-opacity="1"><g transform="translate(747.734364, 436.079721)"><g><path d="M 26 -423.265625 L 111.859375 -423.265625 C 140.890625 -423.265625 168.203125 -417.820312 193.796875 -406.9375 C 219.390625 -396.0625 241.960938 -380.847656 261.515625 -361.296875 C 281.066406 -341.742188 296.285156 -319.164062 307.171875 -293.5625 C 318.054688 -267.96875 323.5 -240.660156 323.5 -211.640625 C 323.5 -182.210938 318.054688 -154.695312 307.171875 -129.09375 C 296.285156 -103.5 281.066406 -81.023438 261.515625 -61.671875 C 241.960938 -42.328125 219.390625 -27.210938 193.796875 -16.328125 C 168.203125 -5.441406 140.890625 0 111.859375 0 L 26 0 C 21.96875 0 18.035156 0 14.203125 0 C 10.378906 0 6.453125 0 2.421875 0 L 1.8125 -30.84375 C 5.4375 -30.84375 9.363281 -30.84375 13.59375 -30.84375 C 17.832031 -30.84375 21.96875 -30.84375 26 -30.84375 L 111.859375 -30.84375 C 136.859375 -30.84375 160.238281 -35.476562 182 -44.75 C 203.769531 -54.019531 222.914062 -66.914062 239.4375 -83.4375 C 255.96875 -99.96875 268.867188 -119.21875 278.140625 -141.1875 C 287.421875 -163.15625 292.0625 -186.640625 292.0625 -211.640625 C 292.0625 -236.628906 287.421875 -260.003906 278.140625 -281.765625 C 268.867188 -303.535156 255.96875 -322.6875 239.4375 -339.21875 C 222.914062 -355.75 203.769531 -368.648438 182 -377.921875 C 160.238281 -387.191406 136.859375 -391.828125 111.859375 -391.828125 L 26 -391.828125 C 21.96875 -391.828125 17.9375 -391.925781 13.90625 -392.125 C 9.875 -392.332031 5.84375 -392.4375 1.8125 -392.4375 L 1.8125 -423.265625 C 5.84375 -423.265625 9.875 -423.265625 13.90625 -423.265625 C 17.9375 -423.265625 21.96875 -423.265625 26 -423.265625 Z M 26 -423.265625 "/></g></g></g><g fill="#ffffff" fill-opacity="1"><g transform="translate(1115.396191, 436.079721)"><g><path d="M 282.375 -392.4375 L 6.65625 -392.4375 L 6.65625 -423.265625 L 282.375 -423.265625 C 289.632812 -423.265625 294.375 -420.644531 296.59375 -415.40625 C 298.8125 -410.164062 298.8125 -405.023438 296.59375 -399.984375 C 294.375 -394.953125 289.632812 -392.4375 282.375 -392.4375 Z M 6.65625 0 L 6.65625 -30.84375 L 282.375 -30.84375 C 289.632812 -30.84375 294.375 -28.21875 296.59375 -22.96875 C 298.8125 -17.726562 298.8125 -12.585938 296.59375 -7.546875 C 294.375 -2.515625 289.632812 0 282.375 0 Z M 6.65625 -196.515625 L 6.65625 -227.96875 L 212.234375 -227.359375 C 219.492188 -227.765625 224.234375 -225.34375 226.453125 -220.09375 C 228.671875 -214.851562 228.671875 -209.613281 226.453125 -204.375 C 224.234375 -199.132812 219.492188 -196.515625 212.234375 -196.515625 Z M 6.65625 -196.515625 "/></g></g></g><path fill="#ff914d" d="M 374.164062 409.367188 C 371.59375 409.367188 368.992188 408.714844 366.605469 407.335938 C 359.363281 403.15625 356.882812 393.894531 361.0625 386.648438 L 400.726562 317.949219 C 404.910156 310.707031 414.167969 308.222656 421.414062 312.40625 C 428.65625 316.585938 431.140625 325.847656 426.957031 333.089844 L 387.292969 401.792969 C 384.488281 406.652344 379.398438 409.367188 374.164062 409.367188 Z M 374.164062 409.367188 " fill-opacity="1" fill-rule="nonzero"/><path fill="#ff6a00" d="M 531.304688 137.195312 C 528.734375 137.195312 526.132812 136.539062 523.746094 135.164062 C 516.503906 130.980469 514.023438 121.71875 518.203125 114.476562 L 557.867188 45.773438 C 562.046875 38.53125 571.308594 36.050781 578.554688 40.230469 C 585.796875 44.414062 588.28125 53.675781 584.097656 60.917969 L 544.433594 129.621094 C 541.628906 134.476562 536.539062 137.195312 531.304688 137.195312 Z M 531.304688 137.195312 " fill-opacity="1" fill-rule="nonzero"/><path fill="#ff914d" d="M 302.15625 337.332031 C 296.921875 337.332031 291.832031 334.617188 289.027344 329.757812 C 284.847656 322.515625 287.328125 313.253906 294.570312 309.070312 L 363.273438 269.40625 C 370.519531 265.226562 379.78125 267.707031 383.957031 274.949219 C 388.140625 282.191406 385.660156 291.453125 378.414062 295.636719 L 309.714844 335.300781 C 307.332031 336.679688 304.726562 337.332031 302.15625 337.332031 Z M 302.15625 337.332031 " fill-opacity="1" fill-rule="nonzero"/><path fill="#ffdbc5" d="M 574.332031 180.191406 C 569.097656 180.191406 564.007812 177.476562 561.203125 172.617188 C 557.019531 165.375 559.5 156.113281 566.746094 151.929688 L 635.445312 112.265625 C 642.699219 108.085938 651.953125 110.570312 656.132812 117.808594 C 660.316406 125.054688 657.835938 134.316406 650.589844 138.496094 L 581.886719 178.160156 C 579.503906 179.539062 576.898438 180.191406 574.332031 180.191406 Z M 574.332031 180.191406 " fill-opacity="1" fill-rule="nonzero"/><g clip-path="url(#3e3052d7b3)"><path fill="#ff914d" d="M 355.105469 238.925781 L 275.777344 238.925781 C 267.414062 238.925781 260.632812 232.148438 260.632812 223.785156 C 260.632812 215.421875 267.414062 208.640625 275.777344 208.640625 L 355.105469 208.640625 C 363.46875 208.640625 370.25 215.421875 370.25 223.785156 C 370.25 232.148438 363.46875 238.925781 355.105469 238.925781 Z M 355.105469 238.925781 " fill-opacity="1" fill-rule="nonzero"/></g><g clip-path="url(#d16f562285)"><path fill="#ffdbc5" d="M 669.386719 238.925781 L 590.054688 238.925781 C 581.691406 238.925781 574.910156 232.148438 574.910156 223.785156 C 574.910156 215.421875 581.691406 208.640625 590.054688 208.640625 L 669.386719 208.640625 C 677.75 208.640625 684.53125 215.421875 684.53125 223.785156 C 684.53125 232.148438 677.75 238.925781 669.386719 238.925781 Z M 669.386719 238.925781 " fill-opacity="1" fill-rule="nonzero"/></g><path fill="#ff6a00" d="M 370.828125 180.191406 C 368.261719 180.191406 365.65625 179.539062 363.273438 178.160156 L 294.570312 138.496094 C 287.328125 134.316406 284.847656 125.054688 289.027344 117.8125 C 293.207031 110.566406 302.46875 108.082031 309.714844 112.265625 L 378.414062 151.933594 C 385.660156 156.113281 388.140625 165.375 383.957031 172.617188 C 381.15625 177.476562 376.0625 180.191406 370.828125 180.191406 Z M 370.828125 180.191406 " fill-opacity="1" fill-rule="nonzero"/><path fill="#f8b287" d="M 643.003906 337.332031 C 640.433594 337.332031 637.832031 336.679688 635.445312 335.300781 L 566.746094 295.636719 C 559.5 291.453125 557.019531 282.191406 561.203125 274.949219 C 565.382812 267.707031 574.640625 265.222656 581.886719 269.40625 L 650.589844 309.070312 C 657.832031 313.253906 660.316406 322.515625 656.132812 329.757812 C 653.328125 334.617188 648.238281 337.332031 643.003906 337.332031 Z M 643.003906 337.332031 " fill-opacity="1" fill-rule="nonzero"/><path fill="#ff6a00" d="M 413.855469 137.195312 C 408.621094 137.195312 403.53125 134.476562 400.726562 129.621094 L 361.0625 60.917969 C 356.882812 53.675781 359.363281 44.414062 366.605469 40.230469 C 373.851562 36.050781 383.113281 38.535156 387.292969 45.773438 L 426.957031 114.476562 C 431.140625 121.71875 428.65625 130.980469 421.414062 135.164062 C 419.03125 136.539062 416.425781 137.195312 413.855469 137.195312 Z M 413.855469 137.195312 " fill-opacity="1" fill-rule="nonzero"/><path fill="#f8b287" d="M 570.996094 409.367188 C 565.761719 409.367188 560.671875 406.652344 557.867188 401.792969 L 518.203125 333.09375 C 514.023438 325.847656 516.503906 316.585938 523.746094 312.40625 C 530.996094 308.226562 540.253906 310.707031 544.433594 317.949219 L 584.097656 386.648438 C 588.28125 393.894531 585.796875 403.15625 578.554688 407.335938 C 576.167969 408.714844 573.566406 409.367188 570.996094 409.367188 Z M 570.996094 409.367188 " fill-opacity="1" fill-rule="nonzero"/><g clip-path="url(#c12202f1c4)"><path fill="#ff6a00" d="M 472.578125 121.453125 C 464.214844 121.453125 457.4375 114.671875 457.4375 106.308594 L 457.4375 26.980469 C 457.4375 18.617188 464.214844 11.835938 472.578125 11.835938 C 480.941406 11.835938 487.722656 18.617188 487.722656 26.980469 L 487.722656 106.308594 C 487.722656 114.671875 480.941406 121.453125 472.578125 121.453125 Z M 472.578125 121.453125 " fill-opacity="1" fill-rule="nonzero"/></g><g clip-path="url(#f04906ac6a)"><path fill="#f8b287" d="M 472.578125 435.734375 C 464.214844 435.734375 457.4375 428.953125 457.4375 420.589844 L 457.4375 341.257812 C 457.4375 332.894531 464.214844 326.117188 472.578125 326.117188 C 480.941406 326.117188 487.722656 332.894531 487.722656 341.257812 L 487.722656 420.589844 C 487.722656 428.953125 480.941406 435.734375 472.578125 435.734375 Z M 472.578125 435.734375 " fill-opacity="1" fill-rule="nonzero"/></g></g></g></svg>