<svg xmlns="http://www.w3.org/2000/svg" xmlns:xlink="http://www.w3.org/1999/xlink" width="2000" zoomAndPan="magnify" viewBox="0 0 1500 1499.999933" height="2000" preserveAspectRatio="xMidYMid meet" version="1.0"><path fill="#1b4580" d="M 471.394531 1275.367188 C 464.121094 1275.367188 456.753906 1273.511719 450 1269.613281 C 429.496094 1257.777344 422.46875 1231.558594 434.308594 1211.050781 L 546.59375 1016.566406 C 558.429688 996.0625 584.640625 989.035156 605.15625 1000.875 C 625.660156 1012.710938 632.6875 1038.929688 620.847656 1059.433594 L 508.5625 1253.921875 C 500.625 1267.675781 486.210938 1275.367188 471.394531 1275.367188 Z M 471.394531 1275.367188 " fill-opacity="1" fill-rule="nonzero"/><path fill="#0b1f3b" d="M 916.238281 504.875 C 908.964844 504.875 901.597656 503.019531 894.84375 499.121094 C 874.339844 487.28125 867.3125 461.066406 879.152344 440.558594 L 991.4375 246.078125 C 1003.273438 225.570312 1029.484375 218.546875 1050 230.386719 C 1070.503906 242.226562 1077.53125 268.441406 1065.691406 288.949219 L 953.40625 483.429688 C 945.46875 497.183594 931.054688 504.875 916.238281 504.875 Z M 916.238281 504.875 " fill-opacity="1" fill-rule="nonzero"/><path fill="#1b4580" d="M 267.554688 1071.441406 C 252.734375 1071.441406 238.328125 1063.75 230.386719 1050 C 218.546875 1029.492188 225.570312 1003.277344 246.078125 991.4375 L 440.5625 879.148438 C 461.074219 867.316406 487.292969 874.339844 499.121094 894.839844 C 510.960938 915.347656 503.9375 941.5625 483.429688 953.402344 L 288.949219 1065.691406 C 282.199219 1069.585938 274.828125 1071.441406 267.554688 1071.441406 Z M 267.554688 1071.441406 " fill-opacity="1" fill-rule="nonzero"/><path fill="#6d8dbb" d="M 1038.042969 626.597656 C 1023.222656 626.597656 1008.816406 618.90625 1000.875 605.15625 C 989.035156 584.648438 996.058594 558.429688 1016.566406 546.59375 L 1211.050781 434.308594 C 1231.578125 422.472656 1257.78125 429.503906 1269.613281 450 C 1281.453125 470.503906 1274.429688 496.726562 1253.921875 508.5625 L 1059.433594 620.847656 C 1052.683594 624.742188 1045.316406 626.597656 1038.042969 626.597656 Z M 1038.042969 626.597656 " fill-opacity="1" fill-rule="nonzero"/><path fill="#1b4580" d="M 417.441406 792.867188 L 192.871094 792.867188 C 169.195312 792.867188 150 773.671875 150 749.996094 C 150 726.324219 169.195312 707.128906 192.871094 707.128906 L 417.441406 707.128906 C 441.117188 707.128906 460.3125 726.324219 460.3125 749.996094 C 460.3125 773.671875 441.117188 792.867188 417.441406 792.867188 Z M 417.441406 792.867188 " fill-opacity="1" fill-rule="nonzero"/><path fill="#6d8dbb" d="M 1307.128906 792.867188 L 1082.558594 792.867188 C 1058.882812 792.867188 1039.6875 773.671875 1039.6875 749.996094 C 1039.6875 726.324219 1058.882812 707.128906 1082.558594 707.128906 L 1307.128906 707.128906 C 1330.808594 707.128906 1350 726.324219 1350 749.996094 C 1350 773.671875 1330.808594 792.867188 1307.128906 792.867188 Z M 1307.128906 792.867188 " fill-opacity="1" fill-rule="nonzero"/><path fill="#0b1f3b" d="M 461.953125 626.597656 C 454.683594 626.597656 447.3125 624.742188 440.558594 620.847656 L 246.078125 508.5625 C 225.570312 496.722656 218.546875 470.507812 230.386719 450 C 242.21875 429.5 268.433594 422.464844 288.949219 434.308594 L 483.429688 546.59375 C 503.9375 558.433594 510.960938 584.652344 499.121094 605.15625 C 491.183594 618.90625 476.769531 626.597656 461.953125 626.597656 Z M 461.953125 626.597656 " fill-opacity="1" fill-rule="nonzero"/><path fill="#4169a2" d="M 1232.445312 1071.441406 C 1225.171875 1071.441406 1217.804688 1069.585938 1211.050781 1065.691406 L 1016.566406 953.402344 C 996.058594 941.5625 989.035156 915.347656 1000.875 894.839844 C 1012.707031 874.335938 1038.921875 867.308594 1059.433594 879.148438 L 1253.921875 991.4375 C 1274.429688 1003.277344 1281.453125 1029.492188 1269.613281 1050 C 1261.671875 1063.75 1247.261719 1071.441406 1232.445312 1071.441406 Z M 1232.445312 1071.441406 " fill-opacity="1" fill-rule="nonzero"/><path fill="#0b1f3b" d="M 583.761719 504.875 C 568.941406 504.875 554.535156 497.183594 546.59375 483.429688 L 434.308594 288.949219 C 422.46875 268.441406 429.496094 242.226562 450 230.386719 C 470.511719 218.554688 496.726562 225.578125 508.5625 246.078125 L 620.84375 440.558594 C 632.683594 461.066406 625.660156 487.28125 605.152344 499.121094 C 598.40625 503.019531 591.035156 504.875 583.761719 504.875 Z M 583.761719 504.875 " fill-opacity="1" fill-rule="nonzero"/><path fill="#4169a2" d="M 1028.605469 1275.367188 C 1013.785156 1275.367188 999.378906 1267.675781 991.4375 1253.921875 L 879.152344 1059.4375 C 867.3125 1038.929688 874.339844 1012.710938 894.84375 1000.875 C 915.363281 989.042969 941.570312 996.0625 953.40625 1016.566406 L 1065.691406 1211.050781 C 1077.53125 1231.558594 1070.503906 1257.777344 1050 1269.613281 C 1043.246094 1273.511719 1035.878906 1275.367188 1028.605469 1275.367188 Z M 1028.605469 1275.367188 " fill-opacity="1" fill-rule="nonzero"/><path fill="#0b1f3b" d="M 749.996094 460.3125 C 726.324219 460.3125 707.128906 441.117188 707.128906 417.441406 L 707.128906 192.871094 C 707.128906 169.195312 726.324219 150 749.996094 150 C 773.671875 150 792.867188 169.195312 792.867188 192.871094 L 792.867188 417.441406 C 792.867188 441.117188 773.671875 460.3125 749.996094 460.3125 Z M 749.996094 460.3125 " fill-opacity="1" fill-rule="nonzero"/><path fill="#4169a2" d="M 749.996094 1350 C 726.324219 1350 707.128906 1330.804688 707.128906 1307.128906 L 707.128906 1082.558594 C 707.128906 1058.882812 726.324219 1039.6875 749.996094 1039.6875 C 773.671875 1039.6875 792.867188 1058.882812 792.867188 1082.558594 L 792.867188 1307.128906 C 792.867188 1330.804688 773.671875 1350 749.996094 1350 Z M 749.996094 1350 " fill-opacity="1" fill-rule="nonzero"/></svg>